<svg xmlns="http://www.w3.org/2000/svg" viewBox="0 0 32 32"><path d="M26.667 0H5.334C2.4 0 0 2.4 0 5.334v21.332C0 29.602 2.4 32 5.334 32h21.333C29.6 32 32 29.602 32 26.666V5.334C32 2.4 29.6 0 26.667 0zm-2.715 11.92c.008.177.012.354.012.532 0 5.422-4.127 11.675-11.675 11.675-2.32 0-4.48-.68-6.29-1.844.32.038.64.058.97.058 1.92 0 3.69-.65 5.09-1.75-1.8-.03-3.31-1.22-3.84-2.85.25.05.51.08.77.08.37 0 .733-.05 1.08-.14-1.88-.37-3.29-2.03-3.29-4.02v-.06c.55.31 1.182.5 1.854.52-1.1-.733-1.823-1.99-1.823-3.412 0-.752.203-1.457.557-2.063 2.025 2.48 5.05 4.115 8.46 4.286-.07-.3-.11-.614-.11-.935 0-2.263 1.837-4.1 4.103-4.1 1.18 0 2.247.498 2.995 1.296.94-.183 1.818-.524 2.61-.995-.305.956-.96 1.76-1.803 2.27.83-.1 1.62-.32 2.354-.65-.55.824-1.24 1.546-2.044 2.125z"/></svg>