<svg xmlns="http://www.w3.org/2000/svg" width="32" height="32" viewBox="0 0 32 32"><path fill="#111" d="M26.667 0H5.334C2.4 0 0 2.4 0 5.334v21.332C0 29.602 2.4 32 5.334 32h21.333C29.6 32 32 29.602 32 26.666V5.334C32 2.4 29.6 0 26.667 0zm-2.715 11.92c.008.177.012.354.012.532 0 5.422-4.127 11.675-11.675 11.675-2.32 0-4.476-.68-6.29-1.844.32.038.646.058.977.058 1.922 0 3.692-.654 5.096-1.755-1.796-.033-3.31-1.22-3.833-2.85.252.05.51.075.773.075.374 0 .737-.05 1.08-.145-1.876-.377-3.29-2.035-3.29-4.023v-.052c.553.307 1.186.492 1.858.513-1.1-.736-1.823-1.992-1.823-3.415 0-.752.202-1.457.556-2.063 2.024 2.482 5.047 4.116 8.457 4.287-.07-.3-.107-.614-.107-.935 0-2.266 1.837-4.103 4.103-4.103 1.18 0 2.247.498 2.995 1.296.937-.184 1.815-.525 2.608-.996-.306.958-.957 1.762-1.804 2.27.83-.1 1.62-.32 2.357-.646-.55.823-1.244 1.545-2.046 2.124z"/></svg>