<svg xmlns="http://www.w3.org/2000/svg" viewBox="0 0 32 32"><path d="M26.667 0H5.334C2.4 0 0 2.4 0 5.334v21.332C0 29.602 2.4 32 5.334 32h21.333C29.6 32 32 29.602 32 26.666V5.334C32 2.4 29.6 0 26.667 0zm-2.715 11.92c.008.177.012.354.012.532 0 5.422-4.127 11.675-11.675 11.675-2.32 0-4.48-.68-6.29-1.844.32.038.64.058.97.058 1.92 0 3.69-.65 5.09-1.75-1.8-.03-3.31-1.22-3.837-2.85.25.05.51.08.772.08.372 0 .735-.05 1.08-.14-1.878-.374-3.29-2.032-3.29-4.02v-.06c.55.31 1.184.494 1.856.515-1.1-.735-1.822-1.99-1.822-3.414 0-.752.202-1.457.556-2.063 2.025 2.48 5.05 4.115 8.46 4.286-.07-.3-.11-.614-.11-.935 0-2.264 1.837-4.1 4.103-4.1 1.18 0 2.246.497 2.994 1.295.94-.183 1.817-.524 2.61-.995-.306.955-.96 1.76-1.804 2.27.83-.1 1.62-.32 2.354-.65-.55.823-1.242 1.545-2.044 2.124z"/></svg>