<svg xmlns="http://www.w3.org/2000/svg" viewBox="0 0 32 32"><path d="M26.667 0H5.334C2.4 0 0 2.4 0 5.334v21.332C0 29.602 2.4 32 5.334 32h21.333C29.6 32 32 29.602 32 26.666V5.334C32 2.4 29.6 0 26.667 0zm-2.715 11.92c.008.177.012.354.012.532 0 5.422-4.127 11.675-11.675 11.675-2.32 0-4.48-.68-6.29-1.844.32.038.64.058.97.058 1.92 0 3.69-.65 5.09-1.75-1.796-.03-3.31-1.22-3.833-2.85.25.05.51.08.772.08.372 0 .735-.05 1.08-.14-1.878-.378-3.29-2.036-3.29-4.024V13.6c.55.308 1.184.493 1.856.514-1.1-.735-1.823-1.99-1.823-3.414 0-.753.202-1.458.556-2.064 2.025 2.48 5.05 4.115 8.46 4.286-.07-.3-.11-.614-.11-.935 0-2.264 1.837-4.1 4.103-4.1 1.18 0 2.247.497 2.995 1.295.94-.183 1.816-.524 2.61-.995-.307.955-.96 1.76-1.805 2.27.83-.1 1.62-.32 2.355-.65-.55.823-1.242 1.545-2.044 2.124z"/></svg>